<svg  viewBox="0 0 160 160" version="1.1" xmlns="http://www.w3.org/2000/svg" xmlns:xlink="http://www.w3.org/1999/xlink">
  <!-- Generator: Sketch 51.1 (57501) - http://www.bohemiancoding.com/sketch -->
  <desc>Created with Sketch.</desc>
  <defs>
    <polygon id="path-1" points="0 0 99 0 99 123 0 123"></polygon>
  </defs>
  <g id="Atomic-Design---Elements" stroke="none" stroke-width="1" fill="none" fill-rule="evenodd">
    <g id="Atoms" transform="translate(-162.000000, -4629.000000)">
      <rect id="Rectangle-6-Copy" fill="#D8D8D8" x="162" y="4629" width="160" height="160"></rect>
      <g id="Page-1" transform="translate(193.000000, 4649.000000)">
        <mask id="mask-2" fill="white">
          <use xlink:href="#path-1"></use>
        </mask>
        <g id="Clip-2"></g>
        <path d="M95.3532984,37.1829237 C93.0414156,35.6384744 90.3716801,34.7346131 87.6765216,34.1148784 C85.0830551,33.5173003 82.4471097,32.9992255 79.7719034,33.1500863 C77.1935619,33.2937787 74.6644574,33.9513101 72.2660077,34.8841705 C66.8116506,37.0086029 61.5725843,40.3496964 58.2119228,45.2251384 C57.1962906,46.6988819 56.3338398,48.2707012 55.4784689,49.8402397 C54.6153746,51.4182498 53.7712671,52.9398908 52.7900685,54.3432544 C52.3601304,54.8746883 51.9050911,55.3820106 51.4236634,55.867502 C50.9876108,56.2780518 50.1055297,57.0528832 49.5439713,56.8583607 C49.1674537,56.7277016 49.0503148,56.1441344 49.0136285,55.7619321 C49.1368817,52.4328944 50.9612224,49.8529472 52.8142042,47.5027124 C57.229437,41.8928424 58.929559,35.2139137 57.4456933,29.1807864 C56.5423727,25.5910822 54.2018488,22.7139751 51.8918969,19.9398314 C50.4295924,18.184568 48.933176,16.3322063 47.8834319,14.2866255 C47.3620998,13.0846269 46.9923401,11.8155066 46.8578235,10.5359597 C46.8111611,10.1094441 46.8111611,9.67934425 46.8314351,9.25022194 C46.8497783,8.85563795 46.9759278,8.38415733 46.9154275,8 C46.3088157,8.17301742 45.6510362,8.77548299 45.1596323,9.16517948 C44.2276707,9.90449499 43.4070553,10.7712113 42.6363204,11.6763759 C37.4271824,17.7906356 33.3025441,26.1899636 35.35183,34.3364449 C36.5090586,38.9362321 38.7015499,42.6272704 41.5450628,46.3808687 C42.5220778,47.6708423 43.4978057,48.9601643 44.3705543,50.3237762 C45.2053294,51.6284122 45.9931202,52.990395 46.49804,54.4595768 C46.6373837,54.86752 46.7551662,55.2819798 46.8565363,55.7006754 C46.9064168,55.9108378 46.9537229,56.1219777 46.9978109,56.3331176 C47.0599202,56.627345 47.2578333,57.0499507 47.0187285,57.3190889 C46.6901605,57.6869545 45.9261837,57.6696854 45.368487,57.5703063 C43.6606415,57.1369481 42.1487783,55.5778363 40.6143884,52.7274476 C39.2277092,50.1126363 37.6627473,47.3958391 35.0496504,45.0645027 C32.9260264,43.1694568 30.337387,41.7253642 27.643194,40.8338845 C24.8827081,39.9199225 21.9674316,39.4318243 19.055695,39.6318859 C15.3603512,39.8863616 11.8069255,41.2512769 8.07038996,40.8772204 C7.1062473,40.7810996 6.15143713,40.5715888 5.25326551,40.2063298 C4.85550839,40.0447166 4.47545082,39.8423742 4.10633478,39.6214593 C3.76650346,39.4184652 3.40993802,39.0857895 3.04178741,38.9564337 C2.90791447,39.5725843 3.1286761,40.4366939 3.2416314,41.0521928 C3.71083033,43.6474541 4.86709355,46.2469513 6.12376147,48.5528728 C7.31091844,50.7317193 8.89711977,52.7753451 10.7935459,54.3794219 C12.6420224,55.9430953 14.7389361,57.2692364 16.9401163,58.2793193 C18.2196327,58.8667965 19.5545005,59.3649955 20.896448,59.7895561 C23.6192822,60.6497557 26.4579679,61.3151071 29.3185367,61.438272 C32.0098334,61.555572 34.6580077,61.049553 37.2875169,60.5373433 C39.7049534,60.0485935 43.0907161,59.5018454 45.437998,59.5425746 C45.7327759,59.5471362 46.1134771,59.6292462 46.1208787,59.9726744 C46.1385783,60.8553565 44.9575357,61.5141912 44.3226046,61.9348418 C43.9174459,62.2013734 43.4598321,62.3848175 43.0073673,62.5532732 C41.8549658,62.9836989 40.65558,63.1994004 39.4323803,63.3004087 C38.6381533,63.3659012 37.8355593,63.3776312 37.038436,63.3450479 C33.875044,63.2274221 30.4812361,63.1987488 26.8621612,64.3606699 C20.1083354,66.5479881 14.2684499,72.4224347 11.9913226,79.3141324 C11.726473,80.1749837 11.4693468,81.024105 11.2389309,81.8696421 C10.4926536,84.6382467 9.63824813,87.9741269 7.23239681,89.7877144 C6.88838195,90.0493585 6.51604782,90.2722284 6.13405939,90.4765258 C5.78167748,90.6642057 5.30572053,90.800404 5.00611545,91.0509697 C5.48818679,91.4856312 6.37187696,91.7407586 6.97687969,91.9655835 C8.12895938,92.3888408 9.32898875,92.6485298 10.5344889,92.8450072 C17.0295795,93.9104818 23.4339196,92.706854 28.9027582,89.0477472 C30.4683637,88.0001935 31.9924557,86.8076441 33.3794567,85.5391755 C35.095991,83.9647495 36.7134079,82.2127445 38.1480368,80.3851461 C40.4818026,77.3757508 41.6277679,73.9821981 42.6939244,70.7043162 C43.6680431,67.7806151 44.7795748,65.1065021 46.4880639,62.682629 C46.7699694,62.3750425 47.2816473,62.0492093 47.8004049,62.2785958 C48.4581845,62.5705424 48.641938,63.1114255 48.836633,63.434652 C49.7142088,65.2485653 50.7337028,67.9259367 50.8656449,68.2784882 C52.8843588,73.6948133 53.717203,79.4825882 53.4684439,85.2394089 C53.2306263,90.7704273 52.5750994,96.3001424 50.8386128,101.579618 C50.3394856,103.096697 49.7576532,104.584451 49.0870012,106.033757 C48.1997711,107.949656 47.1458435,109.745649 45.652967,111.254582 C45.53615,111.371556 44.1259787,112.491119 44.1298404,112.507737 C44.1330585,112.523703 44.1378857,112.538691 44.1427128,112.555308 C45.3569018,112.839109 48.0726562,113.343825 49.7167833,112.650778 C50.1184021,112.075682 50.3198552,111.253931 50.5409386,110.632241 C50.9522118,109.479117 51.3261549,108.313286 51.656332,107.134748 C52.5387349,103.987525 53.2679563,100.761125 53.8964511,97.554926 C54.8387107,92.7443248 55.339447,87.8385803 55.227779,82.9338133 C55.1923799,81.3747015 55.0919752,79.8175447 54.9227031,78.265927 C54.6379013,75.6644749 54.1603353,73.083876 53.4739147,70.5521522 C53.2898394,69.8744191 52.0106447,65.1563546 50.7970993,62.706089 C50.7787562,62.3453916 50.8926769,62.3356166 50.997587,62.2746858 C51.0918773,62.2219009 51.3383837,62.3007525 51.5520655,62.3874241 C53.1717351,63.1674688 54.4885815,65.0595821 55.57823,68.1028641 C56.6279741,71.0066894 57.8447376,74.0867906 60.2541289,76.9586843 C64.7636519,82.3121236 72.3734922,85.5570963 79.6222618,85.2234431 C80.521077,85.1638156 81.4060544,85.102559 82.2778376,85.0155615 C85.1284303,84.7324125 88.546374,84.3453227 91.116992,85.8930303 C91.4864298,86.1139452 91.8310883,86.3736343 92.1602999,86.6479858 C92.4637667,86.9005065 92.7643372,87.2856414 93.1073866,87.4687596 C93.3355499,86.8812824 93.2515575,85.9950161 93.2364324,85.3694164 C93.2087568,84.1791478 93.0102,83.0032158 92.7524302,81.8429238 C91.3651075,75.5970274 87.8976051,70.2194765 82.4883013,66.5404939 C80.9378209,65.4870752 79.2692362,64.5216315 77.5797339,63.7077002 C75.4866819,62.700224 73.2632968,61.8455635 71.0354064,61.1831447 C67.3783579,60.1147376 63.7988657,60.2571267 60.3564644,60.4298183 C57.4778743,60.5546124 54.7347661,60.6748449 52.0347805,60.1147376 C51.8021119,60.0166618 51.6756406,59.8703627 51.6074168,59.5891687 C51.5356532,59.299503 51.8066172,58.9495581 52.0190118,58.7273399 C53.5048084,57.357863 55.9026145,57.1675764 59.6259558,58.1577835 C62.6776797,58.9462998 65.9668994,59.6820312 69.6249133,59.332738 C70.8654907,59.2079439 72.0951266,58.9495581 73.3028794,58.588535 C73.3739994,58.5696367 73.4438322,58.5491092 73.5155958,58.5295592 C73.6298384,58.4937175 73.7453681,58.4588534 73.8605761,58.4207309 C79.2817868,56.7697341 84.3226181,53.0500224 87.4016959,48.2205229 C87.8699294,47.4512308 88.329474,46.6930169 88.7606994,45.9308931 C90.1660435,43.4412017 91.8172505,40.4246381 94.5638985,39.2161228 C94.9568285,39.0424537 95.3664926,38.9101654 95.7819493,38.7993821 C96.1642595,38.6964188 96.6518016,38.6713297 97,38.4963573 C96.6498708,37.9727433 95.8736651,37.5309135 95.3532984,37.1829237" id="Fill-1" fill="#999999" mask="url(#mask-2)"></path>
      </g>
    </g>
  </g>
</svg>
