<svg xmlns="http://www.w3.org/2000/svg" viewBox="0 0 24 24"><title>advertising</title><circle cx="15" cy="10" r="4" fill="#666" fill-rule="evenodd"/><path d="M15,15a12,12,0,0,0-6,1.62L10,21H20l1-4.38A12,12,0,0,0,15,15Z" fill="#666" fill-rule="evenodd"/><path d="M10,7.67a2.33,2.33,0,0,0,0,4.66,2.6,2.6,0,0,0,.56-.07A4.91,4.91,0,0,1,10,10a5,5,0,0,1,.56-2.26A2.52,2.52,0,0,0,10,7.67Z" fill="#666" fill-rule="evenodd"/><path d="M12.17,5.89a4.67,4.67,0,1,0,0,8.21,5.24,5.24,0,0,1-1.07-1,3.18,3.18,0,0,1-1.12.21,3.33,3.33,0,0,1,0-6.66,3.28,3.28,0,0,1,1.13.21A4.65,4.65,0,0,1,12.17,5.89Z" fill="#666" fill-rule="evenodd"/><path d="M4.33,10a5.66,5.66,0,0,1,8.89-4.66A5,5,0,0,1,14.91,5,7,7,0,1,0,8,16.7l-.13-.58.64-.37.38-.2A5.67,5.67,0,0,1,4.33,10Z" fill="#666" fill-rule="evenodd"/></svg>