<svg xmlns="http://www.w3.org/2000/svg" viewBox="0 0 24 24"><title>application_status</title><polygon points="19 7 15 7 15 3 19 7" fill="#666" fill-rule="evenodd"/><path d="M14,8V3H5V21h6.89l.21-.43.9-1.91V18H7V17h6v-.76A5.08,5.08,0,0,1,13.17,15H7V14h6.56A4.66,4.66,0,0,1,16,11.81V11h3V8ZM9.62,5A1.75,1.75,0,1,1,7.88,6.75,1.75,1.75,0,0,1,9.62,5Zm2.19,7H7.44L7,10.08a5.27,5.27,0,0,1,5.25,0Z" fill="#666" fill-rule="evenodd"/><path d="M21,18.88V16.24a3.64,3.64,0,0,0-3-3.66V12H17v.58a3.64,3.64,0,0,0-3,3.66v2.64L13,21h3.5a1,1,0,1,0,2,0H22Z" fill="#666" fill-rule="evenodd"/></svg>