<svg xmlns="http://www.w3.org/2000/svg" viewBox="0 0 24 24"><title>campus_visit</title><polygon points="11.07 8.44 10.64 8.88 10.64 13.16 11.06 13.57 12.94 13.57 13.37 13.15 13.37 8.88 12.93 8.44 11.07 8.44" fill="#666" fill-rule="evenodd"/><path d="M10.87,8l-.7.7v4.64l.7.7h2.26l.69-.7V8.69L13.13,8Zm2.68,5.23-.53.53H11l-.54-.53V8.81L11,8.26h2l.56.55Z" fill="#666" fill-rule="evenodd"/><path d="M15.7,15.51a.1.1,0,0,0-.09-.09h-.13v.18h.13A.1.1,0,0,0,15.7,15.51Z" fill="#666" fill-rule="evenodd"/><path d="M15.57,15.24a.36.36,0,0,0-.36.36.37.37,0,0,0,.36.37.38.38,0,0,0,.37-.37A.37.37,0,0,0,15.57,15.24Zm.12.61-.13-.19h-.08v.19h-.07v-.49h.2a.15.15,0,0,1,.15.15.13.13,0,0,1-.12.14l.13.2Z" fill="#666" fill-rule="evenodd"/><path d="M12,2A9,9,0,0,0,9.69,19.69L12,22l2.31-2.31A9,9,0,0,0,12,2Zm3.57,14A.43.43,0,1,1,16,15.6.42.42,0,0,1,15.57,16ZM16,14.27l-2,2H10l-2-2V7.73l2-2h4.08l1.95,2Z" fill="#666" fill-rule="evenodd"/><path d="M10.05,5.94,8.18,7.81v6.37l1.87,1.87H14l1.88-1.86V7.81L14,5.94Zm5.53,8.16-1.72,1.71H10.13L8.4,14.08V8l1.73-1.73h3.73l1.72,1.71Z" fill="#666" fill-rule="evenodd"/></svg>