<svg xmlns="http://www.w3.org/2000/svg" viewBox="0 0 24 24"><title>document_powerpoint</title><polygon points="19 7 15 7 15 3 19 7" fill="#666" fill-rule="evenodd"/><path d="M12.22,13.12H10.87v1.62h1.35a.81.81,0,1,0,0-1.62Z" fill="#666" fill-rule="evenodd"/><path d="M14,8V3H5V21H19V8Zm-1.6,7.87H10.87V18H9.59V12H12.4a1.94,1.94,0,1,1,0,3.87Z" fill="#666" fill-rule="evenodd"/><path d="M12.22,13.12H10.87v1.62h1.35a.81.81,0,1,0,0-1.62Z" fill="#666" fill-rule="evenodd"/><path d="M14,8V3H5V21H19V8Zm-1.6,7.87H10.87V18H9.59V12H12.4a1.94,1.94,0,1,1,0,3.87Z" fill="#666" fill-rule="evenodd"/></svg>