<svg xmlns="http://www.w3.org/2000/svg" viewBox="0 0 24 24"><title>document_pdf</title><polygon points="19 7 15 7 15 3 19 7" fill="#666" fill-rule="evenodd"/><path d="M9.53,17.52s.31-.13.82-.94A3.25,3.25,0,0,0,9.53,17.52Z" fill="#666" fill-rule="evenodd"/><path d="M11.72,12.41a2.18,2.18,0,0,0,0,1.09C11.9,13.27,11.92,12.41,11.72,12.41Z" fill="#666" fill-rule="evenodd"/><path d="M11.73,14.6a10.17,10.17,0,0,1-.66,1.47,8.66,8.66,0,0,1,1.47-.51A3,3,0,0,1,11.73,14.6Z" fill="#666" fill-rule="evenodd"/><path d="M13.59,15.73c.87.37,1,.21,1,.21S14.54,15.66,13.59,15.73Z" fill="#666" fill-rule="evenodd"/><path d="M14,8V3H5V21H19V8Zm.37,8.47A3.5,3.5,0,0,1,12.88,16a13.46,13.46,0,0,0-1.83.54c-1.35,2.32-2.13,1.26-2,.84s.83-1,1.36-1.24a19.59,19.59,0,0,0,1-2,4,4,0,0,1-.19-1.8.6.6,0,0,1,1.15.16,3.38,3.38,0,0,1-.15,1.5,2.34,2.34,0,0,0,1,1.24c.46-.06,1.4-.15,1.72.17A.62.62,0,0,1,14.37,16.47Z" fill="#666" fill-rule="evenodd"/><path d="M9.53,17.52s.31-.13.82-.94A3.25,3.25,0,0,0,9.53,17.52Z" fill="#666" fill-rule="evenodd"/><path d="M11.72,12.41a2.18,2.18,0,0,0,0,1.09C11.9,13.27,11.92,12.41,11.72,12.41Z" fill="#666" fill-rule="evenodd"/><path d="M11.73,14.6a10.17,10.17,0,0,1-.66,1.47,8.66,8.66,0,0,1,1.47-.51A3,3,0,0,1,11.73,14.6Z" fill="#666" fill-rule="evenodd"/><path d="M13.59,15.73c.87.37,1,.21,1,.21S14.54,15.66,13.59,15.73Z" fill="#666" fill-rule="evenodd"/><path d="M14,8V3H5V21H19V8Zm.37,8.47A3.5,3.5,0,0,1,12.88,16a13.46,13.46,0,0,0-1.83.54c-1.35,2.32-2.13,1.26-2,.84s.83-1,1.36-1.24a19.59,19.59,0,0,0,1-2,4,4,0,0,1-.19-1.8.6.6,0,0,1,1.15.16,3.38,3.38,0,0,1-.15,1.5,2.34,2.34,0,0,0,1,1.24c.46-.06,1.4-.15,1.72.17A.62.62,0,0,1,14.37,16.47Z" fill="#666" fill-rule="evenodd"/></svg>