<svg xmlns="http://www.w3.org/2000/svg" viewBox="0 0 24 24"><title>email_alt</title><polygon points="14.86 4 12 2 9.14 4 14.86 4" fill="#666" fill-rule="evenodd"/><polygon points="22 21 2 21 2 11 12 17 22 11 22 21" fill="#666" fill-rule="evenodd"/><polygon points="22 21 2 21 2 11 12 17 22 11 22 21" fill="#666"/><path d="M5,5v5.8L12,15l7-4.2V5Zm8.53,6.35a.87.87,0,0,1-.94-.72v-.05a1.78,1.78,0,0,1-1.39.77,1.48,1.48,0,0,1-1.5-1.63,2.35,2.35,0,0,1,2.18-2.37A1.33,1.33,0,0,1,13.08,8l.11-.51h1.09l-.49,2.36a1.81,1.81,0,0,0,0,.23c0,.3.16.44.36.44.38,0,.91-.46.91-1.56a2.48,2.48,0,0,0-2.67-2.58A3.51,3.51,0,0,0,8.93,9.79a2.65,2.65,0,0,0,2.73,2.69A3.26,3.26,0,0,0,13.43,12l.21.29a3.74,3.74,0,0,1-2,.61,3,3,0,0,1-3.06-3A3.92,3.92,0,0,1,12.4,6a2.92,2.92,0,0,1,3,3A2.14,2.14,0,0,1,13.53,11.35Z" fill="#666" fill-rule="evenodd"/><path d="M12.14,8.22a1.39,1.39,0,0,0-1.33,1.41.78.78,0,0,0,.8.85,1.37,1.37,0,0,0,1.08-.63l.24-1.13A.87.87,0,0,0,12.14,8.22Z" fill="#666" fill-rule="evenodd"/><path d="M5,5v5.8L12,15l7-4.2V5Zm8.53,6.35a.87.87,0,0,1-.94-.72v-.05a1.78,1.78,0,0,1-1.39.77,1.48,1.48,0,0,1-1.5-1.63,2.35,2.35,0,0,1,2.18-2.37A1.33,1.33,0,0,1,13.08,8l.11-.51h1.09l-.49,2.36a1.81,1.81,0,0,0,0,.23c0,.3.16.44.36.44.38,0,.91-.46.91-1.56a2.48,2.48,0,0,0-2.67-2.58A3.51,3.51,0,0,0,8.93,9.79a2.65,2.65,0,0,0,2.73,2.69A3.26,3.26,0,0,0,13.43,12l.21.29a3.74,3.74,0,0,1-2,.61,3,3,0,0,1-3.06-3A3.92,3.92,0,0,1,12.4,6a2.92,2.92,0,0,1,3,3A2.14,2.14,0,0,1,13.53,11.35Z" fill="#666"/><path d="M12.14,8.22a1.39,1.39,0,0,0-1.33,1.41.78.78,0,0,0,.8.85,1.37,1.37,0,0,0,1.08-.63l.24-1.13A.87.87,0,0,0,12.14,8.22Z" fill="#666"/><polygon points="20 10.2 22 9 20 7.6 20 10.2" fill="#666" fill-rule="evenodd"/><polygon points="4 7.6 2 9 4 10.2 4 7.6" fill="#666" fill-rule="evenodd"/></svg>