<svg xmlns="http://www.w3.org/2000/svg" viewBox="0 0 24 24">
  <title>Error</title>
  <g id="Layer_2" data-name="Layer 2">
    <g id="Icons_-_Expanded" data-name="Icons - Expanded">
      <circle style="fill:none;" cx="12" cy="12" r="9"/>
      <path d="M12,4a8,8,0,1,1-8,8,8,8,0,0,1,8-8m0-2A10,10,0,1,0,22,12,10,10,0,0,0,12,2Z"/>
      <path d="M11.92,18a1.3,1.3,0,0,1-1.36-1.36,1.33,1.33,0,0,1,1.35-1.38,1.31,1.31,0,0,1,1.37,1.33A1.29,1.29,0,0,1,11.92,18Zm-.43-3.93c-.64-4.46-.87-6.16-.87-6.74A1.27,1.27,0,0,1,12,6a1.24,1.24,0,0,1,1.4,1.29c0,.56-.27,2.39-.88,6.78Z"/>
    </g>
  </g>
</svg>
