<svg xmlns="http://www.w3.org/2000/svg" viewBox="0 0 24 24"><title>impression</title><rect x="5" y="16" width="4" height="4" transform="translate(-11 25) rotate(-90)" fill="#666"/><rect x="10" y="16" width="4" height="4" transform="translate(-6 30) rotate(-90)" fill="#666"/><rect x="15" y="16" width="4" height="4" transform="translate(-1 35) rotate(-90)" fill="#666"/><circle cx="12" cy="9" r="3" fill="#666"/><path d="M20,8.82C18.69,5.5,16,3,12,3S5.31,5.5,4,8.82a.56.56,0,0,0,0,.36C5.31,12.5,8,15,12,15s6.69-2.5,8-5.82A.55.55,0,0,0,20,8.82ZM12,13a4,4,0,1,1,4-4A4,4,0,0,1,12,13Z" fill="#666"/></svg>