<svg xmlns="http://www.w3.org/2000/svg" viewBox="0 0 24 24">
    <title>Expand</title>
    <g id="Layer_2" data-name="Layer 2">
        <g id="Icons_-_Expanded" data-name="Icons - Expanded">
            <circle style="fill:none" cx="12" cy="12" r="9"/>
            <path d="M12,4a8,8,0,1,1-8,8,8,8,0,0,1,8-8m0-2A10,10,0,1,0,22,12,10,10,0,0,0,12,2Z"/>
            <path d="M12,18c-.4,0-1.66,0-2.42,0V16.67c.77-.09,1-.14,1.09-.27s.13-.32.13-.9V13.15c0-.68-.1-1-.25-1.05A1.18,1.18,0,0,0,10,12a3.17,3.17,0,0,0-.42,0V10.7a5.68,5.68,0,0,1,2.49-.62c.6,0,1.13.24,1.13,1.32s-.06,2.72-.06,4.08c0,.59,0,.8.15.94s.41.2,1.05.25V18C13.66,18,12.46,18,12,18Zm-.3-9.24a1.3,1.3,0,0,1-1.32-1.36A1.32,1.32,0,0,1,11.79,6a1.21,1.21,0,0,1,1.35,1.33A1.33,1.33,0,0,1,11.74,8.73Z"/>
        </g>
    </g>
</svg>