<svg xmlns="http://www.w3.org/2000/svg" viewBox="0 0 24 24"><title>link_external</title><path d="M19.83,8.17a4.1,4.1,0,0,0-5.66,0l-2.12,2.12,1.41,1.42,2.13-2.12a2,2,0,0,1,2.82,0,2,2,0,0,1,0,2.82l-2.12,2.13L17.71,16l2.12-2.12a4,4,0,0,0,0-5.66Z" fill="#666"/><path d="M12.41,18.41a2,2,0,0,1-2.82,0,2,2,0,0,1,0-2.82l2.12-2.13-1.42-1.41L8.17,14.17a4,4,0,0,0,5.66,5.66L16,17.71l-1.41-1.42Z" fill="#666"/><rect x="11.17" y="13" width="5.66" height="2" transform="translate(-5.8 14) rotate(-45)" fill="#666"/><polygon points="7.66 9.07 9.29 10.71 9.29 10.71 9.29 10.71 10.71 9.29 7.21 5.79 9 4 4 4 4 9 5.79 7.21 7.66 9.07" fill="#666"/></svg>