<svg xmlns="http://www.w3.org/2000/svg" viewBox="0 0 24 24"><title>link</title><path d="M15.71,14l-1.42-1.41,2.12-2.13a2,2,0,0,0,0-2.82,2,2,0,0,0-2.82,0L11.46,9.71,10.05,8.29l2.12-2.12a4.1,4.1,0,0,1,5.66,0,4,4,0,0,1,0,5.66Z" fill="#666"/><path d="M9,19a4,4,0,0,1-2.83-6.83l2.12-2.12,1.42,1.41L7.59,13.59a2,2,0,0,0,0,2.82,2,2,0,0,0,2.82,0l2.13-2.12L14,15.71l-2.12,2.12A4,4,0,0,1,9,19Z" fill="#666"/><rect x="9.17" y="11" width="5.66" height="2" transform="translate(-4.97 12) rotate(-45)" fill="#666"/></svg>