<svg xmlns="http://www.w3.org/2000/svg" viewBox="0 0 24 24"><title>link_click</title><path d="M15.83,9.83a4,4,0,0,0,0-5.66,4.1,4.1,0,0,0-5.66,0L8.05,6.29,9.46,7.71l2.13-2.12a2,2,0,0,1,2.82,0,2,2,0,0,1,0,2.82l-2.12,2.13L13.71,12Z" fill="#666"/><path d="M8.41,14.41a2,2,0,0,1-2.82,0,2,2,0,0,1,0-2.82L7.71,9.46,6.29,8.05,4.17,10.17a4,4,0,0,0,5.66,5.66L12,13.71l-1.41-1.42Z" fill="#666"/><rect x="7.17" y="9" width="5.66" height="2" transform="translate(-4.14 10) rotate(-45)" fill="#666"/><polygon points="20.21 18.79 18.06 16.65 20 16 20 15 14 13 13 14 15 20 16 20 16.65 18.06 18.79 20.21 20.21 18.79" fill="#666"/></svg>