<svg xmlns="http://www.w3.org/2000/svg" viewBox="0 0 24 24"><title>mail_letter_alt</title><polygon points="6 17 6 19 8 19 20 7 18 5 6 17" fill="#666" fill-rule="evenodd"/><rect x="19.79" y="3.09" width="1.41" height="2.83" transform="translate(2.82 15.81) rotate(-45)" fill="#666"/><polygon points="6 17 6 19 8 19 20 7 18 5 6 17" fill="#666"/><rect x="19.79" y="3.09" width="1.41" height="2.83" transform="translate(2.82 15.81) rotate(-45)" fill="#666"/><path d="M8.71,19.71l-.3.29H5V16.59l.29-.3L17,4.59V3H3V21H17V11.41ZM5,5h9V6H5ZM5,8h6V9H5Z" fill="#666" fill-rule="evenodd"/></svg>