<svg xmlns="http://www.w3.org/2000/svg" viewBox="0 0 24 24"><title>mail_letter</title><polygon points="14.86 4 12 2 9.14 4 14.86 4" fill="#666" fill-rule="evenodd"/><polygon points="22 21 2 21 2 11 12 17 22 11 22 21" fill="#666" fill-rule="evenodd"/><polygon points="22 21 2 21 2 11 12 17 22 11 22 21" fill="#666" fill-rule="evenodd"/><polygon points="20 10.2 22 9 20 7.6 20 10.2" fill="#666" fill-rule="evenodd"/><polygon points="4 7.6 2 9 4 10.2 4 7.6" fill="#666" fill-rule="evenodd"/><path d="M5,5v5.8L12,15l7-4.2V5Zm8,6H7V10h6Zm4-3H7V7H17Z" fill="#666" fill-rule="evenodd"/></svg>