<svg xmlns="http://www.w3.org/2000/svg" viewBox="0 0 24 24"><title>media_paid</title><polygon points="21.21 19.79 19.06 17.65 21 17 21 16 15 14 14 15 16 21 17 21 17.65 19.06 19.79 21.21 21.21 19.79" fill="#666" fill-rule="evenodd"/><path d="M10.53,10.78V12c.45-.09.69-.36.69-.65S10.93,10.91,10.53,10.78Z" fill="#666" fill-rule="evenodd"/><path d="M9,8.58c0,.27.26.42.65.53V8C9.22,8,9,8.27,9,8.58Z" fill="#666" fill-rule="evenodd"/><path d="M12.86,14.73l.43-.44,1-1,.44-.43.59.19.84.28a7,7,0,1,0-2.83,2.83l-.28-.84ZM10.53,13.2v.85H9.64v-.84a3.42,3.42,0,0,1-2.2-1l.72-1a2.69,2.69,0,0,0,1.48.8V10.56c-1-.24-2-.6-2-1.87a2,2,0,0,1,2-1.87V6h.89v.89a3.25,3.25,0,0,1,1.89.83l-.74,1A2.52,2.52,0,0,0,10.53,8V9.35c1,.24,2,.61,2,1.88C12.56,12.27,11.89,13.06,10.53,13.2Z" fill="#666" fill-rule="evenodd"/></svg>