<svg xmlns="http://www.w3.org/2000/svg" viewBox="0 0 24 24"><title>meeting_committee</title><polygon points="6 3 8 3 8 2 10 2 10 3 18 3 18 2 20 2 20 3 22 3 22 6 6 6 6 3" fill="#666" fill-rule="evenodd"/><path d="M13.9,22l.85-3.1a8.43,8.43,0,0,0-8.5,0L7.1,22Z" fill="#666" fill-rule="evenodd"/><path d="M10.5,11.8A2.55,2.55,0,0,0,8,14.35a2.52,2.52,0,0,0,.44,1.43,2.17,2.17,0,0,0,.31.37,2.53,2.53,0,0,0,3.6,0,2.17,2.17,0,0,0,.31-.37,2.52,2.52,0,0,0,.44-1.43A2.55,2.55,0,0,0,10.5,11.8Z" fill="#666" fill-rule="evenodd"/><path d="M6,7V9.13a1.9,1.9,0,0,1,.25,0A3.53,3.53,0,0,1,9.37,11a3.29,3.29,0,0,1,2.26,0A3.54,3.54,0,1,1,17,15.34a9.54,9.54,0,0,1,2.46,1l.67.39-.21.74-.14.54H22V7Z" fill="#666" fill-rule="evenodd"/><path d="M14.75,16.05a9.73,9.73,0,0,0-1.22.09,3.6,3.6,0,0,1-.74.9,9.54,9.54,0,0,1,2.46,1l.67.39-.21.74L15.4,20.3h2.75L19,17.2A8.4,8.4,0,0,0,14.75,16.05Z" fill="#666" fill-rule="evenodd"/><path d="M14.75,10.1a2.52,2.52,0,0,0-2.23,1.34,3.54,3.54,0,0,1,1.53,2.91,3.29,3.29,0,0,1-.08.71,2.29,2.29,0,0,0,.78.14,2.55,2.55,0,0,0,0-5.1Z" fill="#666" fill-rule="evenodd"/><path d="M7,15.07A3.45,3.45,0,0,1,7,14.35a3.54,3.54,0,0,1,1.53-2.91A2.52,2.52,0,0,0,6.25,10.1a2.55,2.55,0,1,0,.78,5Z" fill="#666" fill-rule="evenodd"/><path d="M5.29,19.16l-.21-.74L5.75,18a9.54,9.54,0,0,1,2.46-1,3.6,3.6,0,0,1-.74-.9,9.73,9.73,0,0,0-1.22-.09A8.4,8.4,0,0,0,2,17.2l.85,3.1H5.6Z" fill="#666" fill-rule="evenodd"/></svg>