<svg xmlns="http://www.w3.org/2000/svg" viewBox="0 0 24 24"><title>meeting_personally_scheduled</title><polygon points="6 3 8 3 8 2 10 2 10 3 18 3 18 2 20 2 20 3 22 3 22 6 6 6 6 3" fill="#666" fill-rule="evenodd"/><path d="M13.14,10a2.57,2.57,0,1,0,2.57,2.57A2.57,2.57,0,0,0,13.14,10Z" fill="#666" fill-rule="evenodd"/><path d="M4.57,10a2.57,2.57,0,1,0,2.57,2.57A2.57,2.57,0,0,0,4.57,10Z" fill="#666" fill-rule="evenodd"/><path d="M7.14,17.16A8.52,8.52,0,0,0,2.86,16a8.1,8.1,0,0,0-.86.06V21H6.29Z" fill="#666" fill-rule="evenodd"/><path d="M11.43,21h4.28V16.06a7.91,7.91,0,0,0-.85-.06,8.52,8.52,0,0,0-4.29,1.16Z" fill="#666" fill-rule="evenodd"/><path d="M6,7V9.3a3.56,3.56,0,0,1,.32,6.37,8.34,8.34,0,0,1,1.32.62l.64.37-.16.71L8,18H9.74l-.14-.63-.16-.71.63-.37a8.34,8.34,0,0,1,1.32-.62,3.56,3.56,0,1,1,4.31-.61h.11l.9.09V18H22V7Z" fill="#666" fill-rule="evenodd"/></svg>