<svg xmlns="http://www.w3.org/2000/svg" viewBox="0 0 24 24"><title>notification_off</title><path d="M19.78,19.78l-7.12-7.12L7.3,7.3h0L4.22,4.22,2.81,5.64l3.5,3.5A6,6,0,0,0,6,11v6L4,19h6a2,2,0,0,0,4,0h2.17l2.19,2.19Z" fill="#666" fill-rule="evenodd"/><path d="M18,11a6,6,0,0,0-5-5.91V4H11V5.09A5.93,5.93,0,0,0,8.3,6.3L18,16Z" fill="#666" fill-rule="evenodd"/><path d="M19.78,19.78l-7.12-7.12L7.3,7.3h0L4.22,4.22,2.81,5.64l3.5,3.5A6,6,0,0,0,6,11v6L4,19h6a2,2,0,0,0,4,0h2.17l2.19,2.19Z" fill="#666"/><path d="M18,11a6,6,0,0,0-5-5.91V4H11V5.09A5.93,5.93,0,0,0,8.3,6.3L18,16Z" fill="#666"/></svg>