<svg xmlns="http://www.w3.org/2000/svg" viewBox="0 0 24 24"><title>person_collaboration</title><path d="M16.26,16.26,14.9,17.62a4.1,4.1,0,0,1-5.8,0L7.68,19a6.11,6.11,0,0,0,8.64,0l1.35-1.36L19,19V15H15Z" fill="#666" fill-rule="evenodd"/><path d="M7.74,7.74,9.1,6.38a4.1,4.1,0,0,1,5.8,0L16.32,5A6.12,6.12,0,0,0,7.68,5L6.33,6.33,5,5V9H9Z" fill="#666" fill-rule="evenodd"/><circle cx="6.63" cy="11.75" r="1.75" fill="#666" fill-rule="evenodd"/><path d="M9.25,15.08a5.27,5.27,0,0,0-5.25,0L4.44,17H8.81Z" fill="#666" fill-rule="evenodd"/><circle cx="17.38" cy="7.75" r="1.75" fill="#666" fill-rule="evenodd"/><path d="M17.38,10.38a5.3,5.3,0,0,0-2.63.7L15.19,13h4.37L20,11.08A5.29,5.29,0,0,0,17.38,10.38Z" fill="#666" fill-rule="evenodd"/></svg>