<svg xmlns="http://www.w3.org/2000/svg" viewBox="0 0 24 24"><title>person_pair</title><path d="M13,19l1-3.65a9.93,9.93,0,0,0-10,0L5,19Z" fill="#666" fill-rule="evenodd"/><circle cx="9" cy="10" r="3" fill="#666" fill-rule="evenodd"/><path d="M15,12a9.86,9.86,0,0,0-2.84.43,3.86,3.86,0,0,1-.87.84,11,11,0,0,1,3.21,1.21l.67.39-.21.74L14.58,17H19l1-3.65A10,10,0,0,0,15,12Z" fill="#666" fill-rule="evenodd"/><path d="M15,5a3,3,0,0,0-2.94,2.45A4,4,0,0,1,13,10c0,.07,0,.14,0,.21A2.94,2.94,0,0,0,15,11a3,3,0,0,0,0-6Z" fill="#666" fill-rule="evenodd"/></svg>