<svg xmlns="http://www.w3.org/2000/svg" viewBox="0 0 24 24"><title>person_group</title><path d="M16,20l1-3.65a9.93,9.93,0,0,0-10,0L8,20Z" fill="#666" fill-rule="evenodd"/><circle cx="12" cy="11" r="3" fill="#666" fill-rule="evenodd"/><path d="M17,13a9.8,9.8,0,0,0-1.64.15,3.94,3.94,0,0,1-1.07,1.12,11,11,0,0,1,3.21,1.21l.67.39-.21.74L17.58,18H21l1-3.65A10,10,0,0,0,17,13Z" fill="#666" fill-rule="evenodd"/><path d="M17,6a3,3,0,0,0-2.71,1.73A4,4,0,0,1,16,11a3.48,3.48,0,0,1-.09.79A3.06,3.06,0,0,0,17,12a3,3,0,0,0,0-6Z" fill="#666" fill-rule="evenodd"/><path d="M8.09,11.79A3.48,3.48,0,0,1,8,11,4,4,0,0,1,9.71,7.73,3,3,0,1,0,7,12,3.06,3.06,0,0,0,8.09,11.79Z" fill="#666" fill-rule="evenodd"/><path d="M6,16.61l-.21-.74.67-.39a11,11,0,0,1,3.21-1.21,3.94,3.94,0,0,1-1.07-1.12A9.8,9.8,0,0,0,7,13a10,10,0,0,0-5,1.35L3,18H6.42Z" fill="#666" fill-rule="evenodd"/></svg>