<svg xmlns="http://www.w3.org/2000/svg" viewBox="0 0 24 24"><title>question_circle</title><path d="M12,4a8,8,0,1,1-8,8,8,8,0,0,1,8-8m0-2A10,10,0,1,0,22,12,10,10,0,0,0,12,2Z" fill="#666"/><path d="M10.77,13.91c0-2.13,2.81-2.36,2.81-3.84,0-.68-.52-1.26-1.66-1.26A3,3,0,0,0,9.5,10L8.33,8.73A4.8,4.8,0,0,1,12.13,7c2.2,0,3.54,1.17,3.54,2.74,0,2.58-3.12,2.79-3.12,4.36a1.1,1.1,0,0,0,.38.78l-1.53.51A2,2,0,0,1,10.77,13.91Z" fill="#666" fill-rule="evenodd"/><circle cx="12" cy="17" r="1" fill="#666" fill-rule="evenodd"/></svg>