<svg xmlns="http://www.w3.org/2000/svg" viewBox="0 0 24 24"><title>screen_television</title><path d="M16,13v8h4V13Zm.75,1.5h1V15h-1Zm0,1h1V16h-1Zm0,1h1V17h-1ZM18,20a1,1,0,1,1,1-1A1,1,0,0,1,18,20Zm1.25-3h-1v-.5h1Zm0-1h-1v-.5h1Zm0-1h-1v-.5h1Z" fill="#666"/><circle cx="18" cy="19" r="0.5" fill="#666"/><polygon points="2 4 2 17 4 17 4 18 15 18 15 16 3 16 3 5 21 5 21 17 22 17 22 4 2 4" fill="#666" fill-rule="evenodd"/><path d="M15,12h5V6H4v9H15ZM12.82,8.65a4.49,4.49,0,0,1,6.36,0l-.7.7a3.52,3.52,0,0,0-5,0Zm4.95,1.41-.71.71a1.53,1.53,0,0,0-2.12,0l-.71-.71A2.57,2.57,0,0,1,17.77,10.06Z" fill="#666" fill-rule="evenodd"/></svg>