<svg xmlns="http://www.w3.org/2000/svg" viewBox="0 0 24 24"><title>search_paid</title><path d="M10.53,9.35V8a2.82,2.82,0,0,1,.61.23,2.2,2.2,0,0,1,.54.38l.74-1a2.87,2.87,0,0,0-.4-.31,3.13,3.13,0,0,0-.95-.42,3,3,0,0,0-.54-.1V6H9.64v.87c-.13,0-.25,0-.37.06l-.18,0A1.86,1.86,0,0,0,7.64,8.69a1.6,1.6,0,0,0,.29,1,1.66,1.66,0,0,0,.35.35,3,3,0,0,0,.3.19,5.52,5.52,0,0,0,1.06.36V12a2.69,2.69,0,0,1-1.48-.8h0l-.72,1a3.42,3.42,0,0,0,2.2,1v.84h.89V13.2c1.36-.14,2-.93,2-2C12.56,10,11.49,9.59,10.53,9.35ZM9,8.58a.54.54,0,0,1,.17-.4l.07,0A1,1,0,0,1,9.64,8V9.11C9.25,9,9,8.85,9,8.58Zm1.71,2.27a.76.76,0,0,1,.18.09.57.57,0,0,1,.21.15.43.43,0,0,1,.13.29.54.54,0,0,1-.05.21.63.63,0,0,1-.34.34,1,1,0,0,1-.3.1V10.78Z" fill="#666"/><path d="M21.71,20.29l-5.4-5.39A7.92,7.92,0,0,0,18,10a8,8,0,1,0-8,8,7.92,7.92,0,0,0,4.9-1.69l5.39,5.4ZM4,10a6,6,0,1,1,6,6A6,6,0,0,1,4,10Z" fill="#666"/></svg>