<svg xmlns="http://www.w3.org/2000/svg" viewBox="0 0 24 24"><title>settings</title><path d="M22,13.59l0-3.14-2.3-.69a7.9,7.9,0,0,0-.65-1.6l1.13-2.1L18,3.84,15.88,5a7.63,7.63,0,0,0-1.62-.68L13.57,2H10.45L9.77,4.28A7.82,7.82,0,0,0,8.14,5L6.08,3.86,3.84,6.05,5,8.11a8,8,0,0,0-.69,1.62L2,10.42v3.11l2.28.69A8.05,8.05,0,0,0,5,15.82L3.84,18l2.21,2.21L8.17,19a7.51,7.51,0,0,0,1.58.65L10.43,22h3.12l.68-2.32A7.87,7.87,0,0,0,15.79,19l2.14,1.14L20.14,18,19,15.84a8,8,0,0,0,.65-1.57ZM12,15.78A3.77,3.77,0,1,1,15.78,12,3.77,3.77,0,0,1,12,15.78Z" fill="#666" fill-rule="evenodd"/></svg>