<svg xmlns="http://www.w3.org/2000/svg" viewBox="0 0 24 24"><title>social_linkedin</title><path d="M16.51,8.72a3.85,3.85,0,0,0-3.51,2V9H9.1c.05,1.13,0,12,0,12H13V14.53a2.43,2.43,0,0,1,.13-.94,2.06,2.06,0,0,1,1.94-1.41c1.38,0,1.93,1.06,1.93,2.62V21h4V14.12C21,10.43,19.08,8.72,16.51,8.72Z" fill="#666" fill-rule="evenodd"/><path d="M5.18,4a2,2,0,1,0,0,4h0a2,2,0,1,0,0-4Z" fill="#666" fill-rule="evenodd"/><rect x="3" y="9" width="4" height="12" fill="#666"/><path d="M16.51,8.72a3.85,3.85,0,0,0-3.51,2V9H9.1c.05,1.13,0,12,0,12H13V14.53a2.43,2.43,0,0,1,.13-.94,2.06,2.06,0,0,1,1.94-1.41c1.38,0,1.93,1.06,1.93,2.62V21h4V14.12C21,10.43,19.08,8.72,16.51,8.72Z" fill="#666" fill-rule="evenodd"/><path d="M5.18,4a2,2,0,1,0,0,4h0a2,2,0,1,0,0-4Z" fill="#666" fill-rule="evenodd"/><rect x="3" y="9" width="4" height="12" fill="#666"/></svg>