<svg xmlns="http://www.w3.org/2000/svg" viewBox="0 0 24 24"><title>social_snapchat</title><path d="M21.93,16.41a1.41,1.41,0,0,0-.71-.75l-.15-.08-.27-.14a6.06,6.06,0,0,1-2.19-1.87,4,4,0,0,1-.37-.67.34.34,0,0,1,0-.26.34.34,0,0,1,.12-.12l.44-.29c.2-.13.36-.23.46-.31a2.51,2.51,0,0,0,.83-.87A1.73,1.73,0,0,0,18.5,8.51a2,2,0,0,0-.48.05l-.12,0c0-.46,0-1,0-1.42A5.17,5.17,0,0,0,16.5,3.9a5.35,5.35,0,0,0-1.36-1.1A6.27,6.27,0,0,0,12,2a6.23,6.23,0,0,0-3.13.8A5.34,5.34,0,0,0,6.15,7.17a13.54,13.54,0,0,0,0,1.42L6,8.56a2.61,2.61,0,0,0-.48-.05,1.73,1.73,0,0,0-1.58,2.54,2.53,2.53,0,0,0,.83.88l.46.3.42.28a.47.47,0,0,1,.14.14.33.33,0,0,1,0,.27,4.13,4.13,0,0,1-.36.65,5.91,5.91,0,0,1-2.12,1.84c-.49.26-1,.43-1.2,1a1.27,1.27,0,0,0,.35,1.34h0a1.92,1.92,0,0,0,.51.39,5.35,5.35,0,0,0,1.25.5.85.85,0,0,1,.26.11c.14.13.12.33.32.61a1.34,1.34,0,0,0,.37.38,2.48,2.48,0,0,0,1.37.32A5.35,5.35,0,0,1,8,20.29a3.9,3.9,0,0,1,.77.41,5.64,5.64,0,0,0,6.43,0,4.35,4.35,0,0,1,.76-.4,5.3,5.3,0,0,1,1.52-.23,2.4,2.4,0,0,0,1.37-.32,1.42,1.42,0,0,0,.42-.46c.14-.24.14-.41.27-.52a.86.86,0,0,1,.24-.11,5.82,5.82,0,0,0,1.27-.51,2,2,0,0,0,.53-.42h0A1.26,1.26,0,0,0,21.93,16.41Zm-1.4.75c-.86.47-1.43.42-1.87.71s-.15.76-.42.95-1.33,0-2.61.4c-1.06.35-1.73,1.36-3.63,1.36s-2.56-1-3.63-1.36c-1.28-.42-2.27-.17-2.6-.41s-.06-.7-.43-.95-1-.23-1.87-.7c-.54-.3-.23-.49-.05-.57,3.1-1.5,3.59-3.82,3.61-4A.53.53,0,0,0,6.86,12c-.22-.21-1.2-.81-1.47-1-.46-.31-.65-.62-.51-1a.6.6,0,0,1,.62-.37l.24,0c.5.11,1,.35,1.25.42l.11,0c.14,0,.2-.08.19-.25a17.44,17.44,0,0,1,0-2.58A4.08,4.08,0,0,1,8.34,4.65,4.77,4.77,0,0,1,12,3.12a4.81,4.81,0,0,1,3.66,1.52,4.13,4.13,0,0,1,1.08,2.62,17.44,17.44,0,0,1,0,2.58c0,.18,0,.25.19.25H17c.27-.07.75-.32,1.25-.43l.24,0a.62.62,0,0,1,.62.36c.14.39-.05.7-.51,1-.27.19-1.25.8-1.47,1a.54.54,0,0,0-.17.58c0,.18.51,2.49,3.61,4C20.76,16.67,21.07,16.86,20.53,17.16Z" fill="#666" fill-rule="evenodd"/></svg>