<svg xmlns="http://www.w3.org/2000/svg" viewBox="0 0 24 24"><title>social_instagram</title><path d="M18.12,7A1.12,1.12,0,1,1,17,5.88,1.12,1.12,0,0,1,18.12,7ZM7,12.27a5.28,5.28,0,1,1,5.28,5.28A5.28,5.28,0,0,1,7,12.27Zm5.28,3.43a3.43,3.43,0,1,0-3.43-3.43A3.43,3.43,0,0,0,12.28,15.7ZM12,3.8c-2.67,0-3,0-4,.06A5.61,5.61,0,0,0,6.1,4.2,3.33,3.33,0,0,0,4.2,6.1,5.61,5.61,0,0,0,3.86,8c0,1-.06,1.37-.06,4s0,3,.06,4A5.61,5.61,0,0,0,4.2,17.9a3.33,3.33,0,0,0,1.9,1.9A5.61,5.61,0,0,0,8,20.14c1,.05,1.37.06,4,.06s3,0,4-.06a5.61,5.61,0,0,0,1.86-.34,3.33,3.33,0,0,0,1.9-1.9A5.61,5.61,0,0,0,20.14,16c.05-1,.06-1.37.06-4s0-3-.06-4A5.61,5.61,0,0,0,19.8,6.1a3.33,3.33,0,0,0-1.9-1.9A5.61,5.61,0,0,0,16,3.86C15,3.81,14.67,3.8,12,3.8ZM12,2c2.72,0,3.06,0,4.12.06a7.3,7.3,0,0,1,2.43.47,4.7,4.7,0,0,1,1.77,1.15,4.7,4.7,0,0,1,1.15,1.77,7.3,7.3,0,0,1,.47,2.43C22,8.94,22,9.28,22,12s0,3.06-.06,4.12a7.3,7.3,0,0,1-.47,2.43,4.7,4.7,0,0,1-1.15,1.77,4.85,4.85,0,0,1-1.77,1.16,7.59,7.59,0,0,1-2.43.46c-1.06,0-1.4.06-4.12.06s-3.06,0-4.12-.06a7.59,7.59,0,0,1-2.43-.46,4.85,4.85,0,0,1-1.77-1.16,4.85,4.85,0,0,1-1.16-1.77,7.59,7.59,0,0,1-.46-2.43C2,15.06,2,14.72,2,12s0-3.06.06-4.12a7.59,7.59,0,0,1,.46-2.43A4.85,4.85,0,0,1,3.68,3.68,4.7,4.7,0,0,1,5.45,2.53a7.3,7.3,0,0,1,2.43-.47C8.94,2,9.28,2,12,2Z" fill="#666" fill-rule="evenodd"/></svg>