<svg xmlns="http://www.w3.org/2000/svg" viewBox="0 0 24 24"><title>social_twitter</title><path d="M11.71,8.53l0,.7L11,9.14A11.82,11.82,0,0,1,4.15,5.86L3.2,5,3,5.62a4,4,0,0,0,.9,4.19c.58.59.45.67-.55.32A2,2,0,0,0,2.62,10a5.07,5.07,0,0,0,.52,1.9,4.67,4.67,0,0,0,2,1.81l.71.32H5c-.81,0-.84,0-.75.31a4.31,4.31,0,0,0,2.7,2.32l.9.3-.78.45a8.27,8.27,0,0,1-3.88,1A4.59,4.59,0,0,0,2,18.55a11.14,11.14,0,0,0,2.79,1.24,12.59,12.59,0,0,0,9.48-1,12.46,12.46,0,0,0,4.81-5.48,14.29,14.29,0,0,0,1-4.24c0-.65.05-.74.86-1.51a10.18,10.18,0,0,0,1-1.09c.14-.27.13-.27-.61,0-1.23.43-1.4.37-.79-.27a4.16,4.16,0,0,0,1-1.51s-.22,0-.46.16a8.53,8.53,0,0,1-1.28.48L19,5.5,18.29,5a5.89,5.89,0,0,0-1.23-.62,5,5,0,0,0-2.53.06A4,4,0,0,0,11.71,8.53Z" fill="#666" fill-rule="evenodd"/></svg>