<svg xmlns="http://www.w3.org/2000/svg" viewBox="0 0 24 24"><title>student_interest_inquiry</title><path d="M10,14a12,12,0,0,0-6,1.62L5,20h7.61A5.45,5.45,0,0,1,13,14.39,11.63,11.63,0,0,0,10,14Z" fill="#666" fill-rule="evenodd"/><path d="M17.5,13A4.5,4.5,0,1,0,22,17.5,4.49,4.49,0,0,0,17.5,13Zm0,7.2a.45.45,0,1,1,.45-.45A.45.45,0,0,1,17.5,20.2Zm.25-1.76a.51.51,0,0,0,.17.36l-.69.23a.91.91,0,0,1-.28-.67c0-1,1.26-1.06,1.26-1.73,0-.3-.24-.56-.75-.56a1.36,1.36,0,0,0-1.09.55L15.85,16a2.16,2.16,0,0,1,1.71-.78c1,0,1.59.53,1.59,1.23C19.15,17.64,17.75,17.74,17.75,18.44Z" fill="#666" fill-rule="evenodd"/><circle cx="10" cy="9" r="4" fill="#666" fill-rule="evenodd"/></svg>