<svg xmlns="http://www.w3.org/2000/svg" viewBox="0 0 24 24"><title>unlink</title><path d="M19,9a4,4,0,0,0-1.17-2.83,4.1,4.1,0,0,0-5.66,0L10.05,8.29l1.41,1.42,2.13-2.12a2,2,0,0,1,2.82,0,2,2,0,0,1,0,2.82l-2.12,2.13L15.71,14l2.12-2.12A4,4,0,0,0,19,9Z" fill="#666"/><path d="M10.41,16.41a2,2,0,0,1-2.82,0,2,2,0,0,1,0-2.82l2.12-2.13L8.29,10.05,6.17,12.17a4,4,0,0,0,5.66,5.66L14,15.71l-1.41-1.42Z" fill="#666"/><rect x="9" y="5" width="1" height="2" fill="#666"/><rect x="14" y="17" width="1" height="2" fill="#666"/><rect x="5" y="9" width="2" height="1" fill="#666"/><rect x="17" y="14" width="2" height="1" fill="#666"/><rect x="16.75" y="16.19" width="1" height="2.12" transform="translate(-7.15 17.25) rotate(-45)" fill="#666"/><rect x="6.25" y="5.69" width="1" height="2.12" transform="translate(-2.8 6.75) rotate(-45)" fill="#666"/></svg>