<svg xmlns="http://www.w3.org/2000/svg" viewBox="0 0 24 24"><title>webpage_view</title><path d="M6,9H20V6H6Zm5-2h1V8H11ZM9,7h1V8H9ZM7,7H8V8H7Z" fill="#666" fill-rule="evenodd"/><path d="M16.5,12.75a6.47,6.47,0,0,1,3.5,1V10H6v8h4a1.42,1.42,0,0,1,.07-.61A6.71,6.71,0,0,1,16.5,12.75Z" fill="#666" fill-rule="evenodd"/><circle cx="16.5" cy="17.88" r="1.88" fill="#666" fill-rule="evenodd"/><path d="M16.5,13.75a5.76,5.76,0,0,0-5.48,4A.36.36,0,0,0,11,18a5.75,5.75,0,0,0,11,0,.36.36,0,0,0,0-.25A5.76,5.76,0,0,0,16.5,13.75Zm0,7a2.88,2.88,0,1,1,2.88-2.87A2.88,2.88,0,0,1,16.5,20.75Z" fill="#666" fill-rule="evenodd"/><polygon points="16 4 5 4 4 4 4 5 4 16 5 16 5 5 16 5 16 4" fill="#666" fill-rule="evenodd"/><polygon points="14 2 3 2 2 2 2 3 2 14 3 14 3 3 14 3 14 2" fill="#666" fill-rule="evenodd"/></svg>