<svg xmlns="http://www.w3.org/2000/svg" viewBox="0 0 24 24"><title>wifi_disabled</title><path d="M9.31,6.31l1.74,1.74a10.45,10.45,0,0,1,8.37,3l1.42-1.42A12.51,12.51,0,0,0,9.31,6.31Z" fill="#666" fill-rule="evenodd"/><path d="M17.3,13.2l1.42-1.42A9.47,9.47,0,0,0,12,9l2.41,2.41A7.29,7.29,0,0,1,17.3,13.2Z" fill="#666" fill-rule="evenodd"/><path d="M13.1,12.1,9.35,8.35h0l-.79-.79L4.5,3.5,3.09,4.91,5.83,7.66a12.42,12.42,0,0,0-2.67,2l1.42,1.42A10.09,10.09,0,0,1,7.31,9.14l.74.74a9.64,9.64,0,0,0-2.77,1.9L6.7,13.2a7.49,7.49,0,0,1,2.88-1.79l.8.8a6.6,6.6,0,0,0-3,1.69l1.42,1.42A4.47,4.47,0,0,1,12,14l.19,0,1.37,1.37A3.4,3.4,0,0,0,12,15a3.47,3.47,0,0,0-2.2.8L12,18l2.09-2.09,3.5,3.5L19,18l-3.25-3.25Z" fill="#666" fill-rule="evenodd"/><path d="M9.31,6.31l1.74,1.74a10.45,10.45,0,0,1,8.37,3l1.42-1.42A12.51,12.51,0,0,0,9.31,6.31Z" fill="#666"/><path d="M17.3,13.2l1.42-1.42A9.47,9.47,0,0,0,12,9l2.41,2.41A7.29,7.29,0,0,1,17.3,13.2Z" fill="#666"/><path d="M13.1,12.1,9.35,8.35h0l-.79-.79L4.5,3.5,3.09,4.91,5.83,7.66a12.42,12.42,0,0,0-2.67,2l1.42,1.42A10.09,10.09,0,0,1,7.31,9.14l.74.74a9.64,9.64,0,0,0-2.77,1.9L6.7,13.2a7.49,7.49,0,0,1,2.88-1.79l.8.8a6.6,6.6,0,0,0-3,1.69l1.42,1.42A4.47,4.47,0,0,1,12,14l.19,0,1.37,1.37A3.4,3.4,0,0,0,12,15a3.47,3.47,0,0,0-2.2.8L12,18l2.09-2.09,3.5,3.5L19,18l-3.25-3.25Z" fill="#666"/></svg>