<svg xmlns="http://www.w3.org/2000/svg" viewBox="0 0 24 24"><title>wifi</title><path d="M12,18l2.2-2.2a3.42,3.42,0,0,0-4.4,0Z" fill="#666" fill-rule="evenodd"/><path d="M12,18l2.2-2.2a3.42,3.42,0,0,0-4.4,0Z" fill="#666" fill-rule="evenodd"/><path d="M15.18,15.32a4.49,4.49,0,0,0-6.36,0L7.4,13.9a6.52,6.52,0,0,1,9.2,0Z" fill="#666" fill-rule="evenodd"/><path d="M15.18,15.32a4.49,4.49,0,0,0-6.36,0L7.4,13.9a6.52,6.52,0,0,1,9.2,0Z" fill="#666"/><path d="M19.42,11.08a10.49,10.49,0,0,0-14.84,0L3.16,9.66a12.52,12.52,0,0,1,17.68,0Z" fill="#666" fill-rule="evenodd"/><path d="M19.42,11.08a10.49,10.49,0,0,0-14.84,0L3.16,9.66a12.52,12.52,0,0,1,17.68,0Z" fill="#666"/><path d="M17.3,13.2a7.49,7.49,0,0,0-10.6,0L5.28,11.78a9.52,9.52,0,0,1,13.44,0Z" fill="#666" fill-rule="evenodd"/><path d="M17.3,13.2a7.49,7.49,0,0,0-10.6,0L5.28,11.78a9.52,9.52,0,0,1,13.44,0Z" fill="#666"/></svg>